<svg width="54" height="61" viewBox="0 0 54 61" fill="none" xmlns="http://www.w3.org/2000/svg">
<path d="M26.9193 60.543C30.8669 60.543 33.6632 57.8311 33.6632 53.7633C33.6632 48.3396 28.0707 39.187 28.0707 35.6277C28.0707 34.7803 28.3997 33.5938 29.7156 33.5938C32.0184 33.5938 34.4857 37.3226 37.1174 41.0514C39.7492 44.7803 42.8744 48.5091 46.6576 48.5091C50.2763 48.5091 53.4016 45.4582 53.4016 42.0684C53.4016 36.3057 47.6445 34.7803 41.8875 34.1023C36.1305 33.5938 30.3736 33.2548 30.3736 30.543C30.3736 27.6616 36.1305 27.6616 41.8875 26.9836C47.48 26.3057 53.2371 24.9498 53.2371 19.187C53.2371 15.6277 50.1118 12.4074 46.4931 12.4074C42.7099 12.4074 39.5847 16.1362 36.9529 19.865C34.3212 23.7633 32.0183 27.4921 29.5511 27.4921C28.5641 27.4921 28.0707 26.6447 28.0707 25.6277C28.0707 22.5769 33.8277 13.0853 33.8277 7.15313C33.8277 3.08534 31.0314 0.542969 26.9193 0.542969C22.9716 0.542969 20.1754 3.08534 20.1754 6.98364C20.1754 13.0853 25.9324 22.5769 25.9324 25.6277C25.9324 26.4752 25.6034 27.4921 24.1231 27.4921C21.4913 27.4921 19.1885 23.5938 16.5567 19.865C13.9249 16.1362 10.9642 12.4074 7.01654 12.4074C3.23337 12.4074 0.601562 15.2887 0.601562 18.848C0.601562 24.7803 6.35862 26.3057 12.1156 26.9836C17.8726 27.4921 23.6296 27.6616 23.6296 30.543C23.6296 33.2548 17.8726 33.5938 12.1156 34.1023C6.35862 34.7803 0.601562 36.3057 0.601562 42.0684C0.601562 45.1192 3.23335 48.5091 6.85204 48.5091C10.9642 48.5091 13.925 44.7803 16.8857 41.0514C19.5175 37.3226 21.9848 33.5938 24.2876 33.5938C25.2745 33.5938 25.9324 34.2718 25.9324 35.4582C25.9324 38.8481 20.1754 48.1701 20.1754 53.5938C20.1754 57.8311 22.9717 60.543 26.7549 60.543H26.9193Z" fill="#333333"/>
</svg>
