<svg width="100" height="100" viewBox="0 0 100 100" fill="none" xmlns="http://www.w3.org/2000/svg">
<path d="M49.9792 0C22.4208 0 0 22.425 0 49.9833C0 77.5667 22.4208 100 49.9792 100C77.5625 100 100 77.5625 100 49.9833C100 22.425 77.5625 0 49.9792 0ZM24.6167 68.35C30.3393 66.597 36.2899 65.7012 42.275 65.6917C52.3333 65.6917 62.2625 68.2417 70.9917 73.0667C71.5125 73.35 71.9833 74.2833 72.2 75.45C72.4083 76.6167 72.325 77.8125 71.9833 78.4333C71.8223 78.7286 71.6043 78.989 71.3419 79.1995C71.0795 79.4099 70.7779 79.5661 70.4547 79.6592C70.1315 79.7522 69.793 79.7801 69.4589 79.7413C69.1248 79.7026 68.8017 79.5979 68.5083 79.4333C62.0967 75.916 55.0439 73.7222 47.7683 72.9821C40.4928 72.2421 33.1427 72.9708 26.1542 75.125C25.8333 75.2287 25.4951 75.2676 25.1591 75.2393C24.8231 75.2111 24.4961 75.1162 24.1971 74.9603C23.8981 74.8044 23.6331 74.5906 23.4176 74.3313C23.2021 74.072 23.0403 73.7724 22.9417 73.45C22.4958 71.9917 23.4167 68.7417 24.6167 68.35ZM22.4375 49.9333C28.9023 48.177 35.5717 47.2873 42.2708 47.2875C54.3292 47.2875 66.3 50.2042 76.8958 55.7292C77.6417 56.1042 78.1875 56.7458 78.4375 57.5292C78.5639 57.9247 78.6098 58.3416 78.5726 58.7552C78.5354 59.1688 78.4158 59.5708 78.2208 59.9375C77.275 61.7875 76.1667 63.0333 75.4708 63.0333C74.9632 63.0311 74.4634 62.9083 74.0125 62.675C64.2175 57.5612 53.3245 54.9098 42.275 54.95C36.1289 54.9377 30.0094 55.7576 24.0833 57.3875C23.688 57.4956 23.2752 57.5247 22.8687 57.4733C22.4621 57.4218 22.0696 57.2908 21.7136 57.0877C21.3577 56.8845 21.0452 56.6133 20.7941 56.2894C20.5429 55.9655 20.3581 55.5953 20.25 55.2C19.7833 53.4417 20.8542 50.3667 22.4375 49.9333V49.9333ZM21.875 37.9083C21.406 38.0287 20.9178 38.055 20.4386 37.9857C19.9594 37.9164 19.4987 37.7528 19.083 37.5045C18.6674 37.2562 18.305 36.928 18.0169 36.5389C17.7287 36.1498 17.5205 35.7075 17.4042 35.2375C16.8917 33.1625 18.1875 30.7542 20.0708 30.2792C27.3354 28.4899 34.7891 27.5819 42.2708 27.575C56.6458 27.575 70.4208 30.8083 83.2042 37.1875C84.0825 37.6242 84.7514 38.3919 85.0639 39.3216C85.3765 40.2514 85.307 41.2672 84.8708 42.1458C84.275 43.3458 82.9833 44.6375 81.5583 44.6375C80.9995 44.6354 80.4479 44.5117 79.9417 44.275C68.2524 38.411 55.3485 35.3766 42.2708 35.4167C35.4583 35.4167 28.5958 36.2542 21.875 37.9083Z" fill="#333333"/>
</svg>
